<?xml version="1.0" encoding="UTF-8"?>
<svg id="Layer_1" data-name="Layer 1" xmlns="http://www.w3.org/2000/svg" viewBox="0 0 137.19146728515625 135.31915283203125">
  <defs>
    <style>
      .cls-1 {
        fill: #fff;
        stroke-width: 0px;
      }
    </style>
  </defs>
  <path class="cls-1" d="m112.425537109375,0H24.76593017578125C11.08807373046875,0,0,11.08807373046875,0,24.76593017578125v85.7872314453125c0,13.6778564453125,11.08807373046875,24.7659912109375,24.76593017578125,24.7659912109375h87.65960693359375c13.6778564453125,0,24.76593017578125-11.088134765625,24.76593017578125-24.7659912109375V24.76593017578125c0-13.6778564453125-11.08807373046875-24.76593017578125-24.76593017578125-24.76593017578125Zm-44.473388671875,118.46807861328125h-8.43084716796875s-.23406982421875-.10638427734375-1.44683837890625-2.627685546875c-.223388671875,2.17022705078125-13.5638427734375,9.4149169921875-24.09576416015625-2.84039306640625-10.5318603515625-12.25531005859375-10.34039306640625-46.404296875-10.0850830078125-54.127685546875.229248046875-6.9344482421875.14971923828125-22.101806640625,6.845458984375-34.42962646484375,1.80523681640625-3.32379150390625,4.397705078125-6.2034912109375,7.699951171875-8.0478515625,11.848876953125-6.61773681640625,22.2418212890625,3.91363525390625,22.2418212890625,3.91363525390625l.69146728515625-.04254150390625,4.59576416015625-6.0106201171875h1.90423583984375v30.47869873046875h-6.21539306640625c.89093017578125-26.24468994140625-9.80584716796875-25.62762451171875-9.80584716796875-25.62762451171875-.70220947265625.19146728515625-9.38299560546875-3.06378173828125-11.04254150390625,20.425537109375-1.65960693359375,23.48931884765625-.127685546875,51.31915283203125.5106201171875,55.24468994140625.6383056640625,3.92547607421875,2.26593017578125,19.34039306640625,8.64892578125,20.4573974609375,6.38299560546875,1.1170654296875,7.276611328125-5.223388671875,7.276611328125-5.223388671875v-38.06915283203125l-9.175537109375-1.276611328125v-4.1116943359375h19.88299560546875v51.9149169921875Zm53.333984375-47.13623046875h-20.535400390625v20.53533935546875h-4.83758544921875v-20.53533935546875h-20.53607177734375v-4.83758544921875h20.53607177734375v-20.53680419921875h4.83758544921875v20.53680419921875h20.535400390625v4.83758544921875Z"/>
</svg>