<svg width="434" height="58" viewBox="0 0 434 58" fill="none" xmlns="http://www.w3.org/2000/svg">
<path d="M37.7957 39.7782H32.2032L35.7011 19.4772H41.2933L37.7957 39.7782Z" fill="#15195A"/>
<path d="M58.0686 19.9735C56.9655 19.5627 55.2159 19.1092 53.0525 19.1092C47.5298 19.1092 43.6407 21.8734 43.6168 25.8255C43.5709 28.7413 46.4013 30.3608 48.5182 31.333C50.6818 32.3265 51.4173 32.9749 51.4173 33.8605C51.3953 35.2205 49.669 35.8474 48.0588 35.8474C45.8261 35.8474 44.6297 35.5242 42.8116 34.7675L42.0752 34.4432L41.2926 39.0003C42.6043 39.5612 45.0208 40.0589 47.5298 40.0808C53.3978 40.0808 57.2181 37.3593 57.2633 33.1477C57.2857 30.8367 55.7911 29.066 52.569 27.619C50.613 26.6901 49.4151 26.0637 49.4151 25.1133C49.4381 24.2493 50.4283 23.3644 52.6363 23.3644C54.4544 23.321 55.7902 23.7312 56.8022 24.1417L57.308 24.3573L58.0686 19.9735Z" fill="#15195A"/>
<path fill-rule="evenodd" clip-rule="evenodd" d="M68.0793 19.4772H72.4051L76.9168 39.7779H71.7387C71.7387 39.7779 71.232 37.4454 71.0714 36.7326H63.8911C63.6835 37.2723 62.7174 39.7779 62.7174 39.7779H56.8494L65.1563 21.1616C65.7319 19.844 66.7453 19.4772 68.0793 19.4772ZM67.7348 26.9062C67.7348 26.9062 65.9625 31.42 65.502 32.5863H70.1504C69.9204 31.5713 68.8614 26.7119 68.8614 26.7119L68.4706 24.9626C68.306 25.4131 68.068 26.0324 67.9074 26.4501C67.7986 26.7332 67.7254 26.9237 67.7348 26.9062Z" fill="#15195A"/>
<path fill-rule="evenodd" clip-rule="evenodd" d="M7.97169 19.4772H16.9695C18.1891 19.5199 19.1787 19.8871 19.5007 21.1837L21.456 30.5102L21.4568 30.5129L22.0553 33.3205L27.5322 19.4772H33.4458L24.6554 39.7567H18.7415L13.7569 22.1169C12.0371 21.1732 10.0742 20.4141 7.87964 19.8874L7.97169 19.4772Z" fill="#15195A"/>
<g clip-path="url(#clip0_4982_3565)">
<path fill-rule="evenodd" clip-rule="evenodd" d="M119.343 44.5914V46.7328V48.8743H118.406V48.3543C118.109 48.74 117.657 48.982 117.044 48.982C115.835 48.982 114.887 48.0415 114.887 46.7328C114.887 45.4252 115.835 44.4837 117.044 44.4837C117.657 44.4837 118.109 44.7257 118.406 45.1114V44.5914H119.343ZM117.161 45.3616C116.349 45.3616 115.853 45.98 115.853 46.7328C115.853 47.4856 116.349 48.1041 117.161 48.1041C117.936 48.1041 118.46 47.5123 118.46 46.7328C118.46 45.9534 117.936 45.3616 117.161 45.3616ZM151.023 46.7328C151.023 45.98 151.519 45.3616 152.331 45.3616C153.107 45.3616 153.63 45.9534 153.63 46.7328C153.63 47.5123 153.107 48.1041 152.331 48.1041C151.519 48.1041 151.023 47.4856 151.023 46.7328ZM154.514 42.8715V46.7328V48.8743H153.576V48.3543C153.279 48.74 152.827 48.982 152.214 48.982C151.005 48.982 150.057 48.0415 150.057 46.7328C150.057 45.4252 151.005 44.4837 152.214 44.4837C152.827 44.4837 153.279 44.7257 153.576 45.1114V42.8715H154.514ZM130.98 45.3175C131.584 45.3175 131.972 45.6939 132.071 46.3565H129.834C129.934 45.738 130.312 45.3175 130.98 45.3175ZM128.851 46.7328C128.851 45.3975 129.735 44.4837 130.999 44.4837C132.207 44.4837 133.037 45.3975 133.046 46.7328C133.046 46.858 133.037 46.9749 133.027 47.0908H129.826C129.961 47.862 130.511 48.14 131.115 48.14C131.548 48.14 132.008 47.9779 132.37 47.6918L132.829 48.382C132.306 48.821 131.711 48.982 131.062 48.982C129.771 48.982 128.851 48.0948 128.851 46.7328ZM142.318 46.7328C142.318 45.98 142.815 45.3616 143.626 45.3616C144.402 45.3616 144.925 45.9534 144.925 46.7328C144.925 47.5123 144.402 48.1041 143.626 48.1041C142.815 48.1041 142.318 47.4856 142.318 46.7328ZM145.809 44.5914V46.7328V48.8743H144.871V48.3543C144.573 48.74 144.123 48.982 143.51 48.982C142.301 48.982 141.353 48.0415 141.353 46.7328C141.353 45.4252 142.301 44.4837 143.51 44.4837C144.123 44.4837 144.573 44.7257 144.871 45.1114V44.5914H145.809ZM137.024 46.7328C137.024 48.0323 137.934 48.982 139.324 48.982C139.974 48.982 140.406 48.8384 140.875 48.4712L140.425 47.7185C140.073 47.9697 139.703 48.1041 139.296 48.1041C138.548 48.0948 137.998 47.5574 137.998 46.7328C137.998 45.9083 138.548 45.3708 139.296 45.3616C139.703 45.3616 140.073 45.496 140.425 45.7472L140.875 44.9944C140.406 44.6273 139.974 44.4837 139.324 44.4837C137.934 44.4837 137.024 45.4334 137.024 46.7328ZM147.974 45.1114C148.217 44.735 148.569 44.4837 149.11 44.4837C149.3 44.4837 149.571 44.5196 149.778 44.6006L149.489 45.4785C149.291 45.3975 149.093 45.3708 148.903 45.3708C148.29 45.3708 147.983 45.7647 147.983 46.4734V48.8743H147.045V44.5914H147.974V45.1114ZM123.98 44.9319C123.529 44.6365 122.907 44.4837 122.222 44.4837C121.129 44.4837 120.426 45.0037 120.426 45.8549C120.426 46.5534 120.95 46.9841 121.914 47.1185L122.357 47.181C122.871 47.2528 123.114 47.3872 123.114 47.6292C123.114 47.9605 122.771 48.1492 122.131 48.1492C121.481 48.1492 121.013 47.9431 120.697 47.701L120.255 48.4261C120.769 48.8025 121.418 48.982 122.122 48.982C123.367 48.982 124.088 48.3995 124.088 47.5841C124.088 46.8313 123.52 46.4375 122.582 46.3031L122.14 46.2395C121.734 46.1862 121.409 46.1062 121.409 45.819C121.409 45.5052 121.716 45.3175 122.23 45.3175C122.78 45.3175 123.313 45.5237 123.574 45.6847L123.98 44.9319ZM134.94 45.1114C135.183 44.735 135.535 44.4837 136.076 44.4837C136.266 44.4837 136.537 44.5196 136.744 44.6006L136.455 45.4785C136.257 45.3975 136.059 45.3708 135.869 45.3708C135.255 45.3708 134.949 45.7647 134.949 46.4734V48.8743H134.011V44.5914H134.94V45.1114ZM128.076 44.5914H126.542V43.292H125.595V44.5914H124.72V45.4426H125.595V47.3964C125.595 48.3902 125.983 48.982 127.092 48.982C127.498 48.982 127.967 48.8569 128.264 48.6507L127.994 47.8528C127.714 48.0138 127.408 48.0948 127.164 48.0948C126.695 48.0948 126.542 47.8077 126.542 47.378V45.4426H128.076V44.5914ZM114.058 46.1862V48.8743H113.11V46.4908C113.11 45.7647 112.804 45.3616 112.164 45.3616C111.541 45.3616 111.109 45.7565 111.109 46.5V48.8743H110.161V46.4908C110.161 45.7647 109.846 45.3616 109.223 45.3616C108.582 45.3616 108.167 45.7565 108.167 46.5V48.8743H107.22V44.5914H108.159V45.1196C108.511 44.6181 108.961 44.4837 109.422 44.4837C110.08 44.4837 110.549 44.7709 110.846 45.2457C111.244 44.6447 111.812 44.4745 112.362 44.4837C113.409 44.4929 114.058 45.1739 114.058 46.1862Z" fill="#231F20"/>
<path d="M137.878 37.3138H123.669V11.9486H137.878V37.3138Z" fill="#FF5F00"/>
<path d="M124.571 24.6317C124.571 19.4863 126.996 14.9028 130.772 11.9491C128.011 9.78918 124.525 8.5 120.737 8.5C111.769 8.5 104.5 15.7223 104.5 24.6317C104.5 33.5411 111.769 40.7634 120.737 40.7634C124.525 40.7634 128.011 39.4742 130.772 37.3143C126.996 34.3606 124.571 29.7772 124.571 24.6317Z" fill="#EB001B"/>
<path d="M157.046 24.6317C157.046 33.5411 149.777 40.7634 140.809 40.7634C137.021 40.7634 133.535 39.4742 130.772 37.3143C134.55 34.3606 136.975 29.7772 136.975 24.6317C136.975 19.4863 134.55 14.9028 130.772 11.9491C133.535 9.78918 137.021 8.5 140.809 8.5C149.777 8.5 157.046 15.7223 157.046 24.6317Z" fill="#F79E1B"/>
</g>
<g clip-path="url(#clip1_4982_3565)">
<path fill-rule="evenodd" clip-rule="evenodd" d="M176.432 55.3502H176.253C176.253 55.2609 176.208 55.1264 176.208 55.0813C176.208 55.0368 176.208 54.9475 176.074 54.9475H175.805V55.3502H175.671V54.4098H176.074C176.253 54.4098 176.387 54.4549 176.387 54.6335C176.387 54.7679 176.342 54.813 176.298 54.8572C176.342 54.9024 176.387 54.9472 176.387 55.0368V55.2157C176.387 55.2609 176.387 55.2609 176.432 55.2609V55.3502ZM176.253 54.6787C176.253 54.5442 176.163 54.5442 176.119 54.5442H175.805V54.813H176.074C176.163 54.813 176.253 54.7679 176.253 54.6787ZM177.013 54.8575C177.013 54.3205 176.566 53.872 175.984 53.872C175.448 53.872 175 54.3205 175 54.8575C175 55.4398 175.448 55.8882 175.984 55.8882C176.566 55.8879 177.013 55.4398 177.013 54.8575ZM176.879 54.8575C176.879 55.3505 176.477 55.7086 175.984 55.7086C175.492 55.7086 175.134 55.3502 175.134 54.8575C175.134 54.4098 175.492 54.0065 175.984 54.0065C176.476 54.0065 176.879 54.4098 176.879 54.8575ZM232 36.7608C232 38.1048 231.15 38.7312 229.628 38.7312H226.721V37.3872H229.628C229.897 37.3872 230.121 37.3427 230.211 37.2534C230.3 37.1635 230.389 37.0291 230.389 36.8501C230.389 36.6706 230.3 36.4916 230.211 36.4024C230.121 36.3124 229.942 36.2679 229.674 36.2679C228.287 36.2227 226.542 36.3124 226.542 34.3417C226.542 33.4455 227.123 32.46 228.689 32.46H231.687V33.804H228.913C228.645 33.804 228.465 33.804 228.331 33.8933C228.197 34.0277 228.108 34.1621 228.108 34.3862C228.108 34.6102 228.242 34.7447 228.421 34.8346C228.6 34.8791 228.779 34.9239 229.003 34.9239H229.808C230.658 34.9239 231.195 35.1028 231.553 35.4168C231.821 35.7302 232 36.1338 232 36.7608ZM225.691 35.4168C225.333 35.1028 224.796 34.9239 223.946 34.9239H223.141C222.918 34.9239 222.738 34.8788 222.56 34.8346C222.38 34.7447 222.247 34.6102 222.247 34.3862C222.247 34.1621 222.291 34.0277 222.47 33.8933C222.605 33.804 222.783 33.804 223.052 33.804H225.826V32.46H222.828C221.217 32.46 220.68 33.4455 220.68 34.3417C220.68 36.3121 222.425 36.2227 223.813 36.2679C224.08 36.2679 224.26 36.3124 224.349 36.4024C224.438 36.4916 224.528 36.6706 224.528 36.8501C224.528 37.0291 224.439 37.1635 224.349 37.2534C224.215 37.3427 224.036 37.3872 223.768 37.3872H220.859V38.7312H223.768C225.288 38.7312 226.139 38.1045 226.139 36.7608C226.139 36.1338 225.96 35.7302 225.691 35.4168ZM219.964 37.4327H216.431V36.1783H219.875V34.9245H216.431V33.7595H219.964V32.4606H214.954V38.7315H219.964V37.4327ZM213.343 32.7743C212.851 32.5054 212.269 32.4603 211.509 32.4603H208.064V38.7312H209.585V36.4468H211.196C211.732 36.4468 212.046 36.4919 212.269 36.7157C212.538 37.0291 212.538 37.5668 212.538 37.9701V38.7312H214.014V37.5216C214.014 36.9394 213.97 36.6706 213.791 36.3572C213.656 36.1776 213.388 35.9539 213.03 35.8195C213.433 35.6857 214.104 35.148 214.104 34.1621C214.104 33.4458 213.835 33.0425 213.343 32.7743ZM204.842 32.4603H200.055L198.131 34.5209L196.297 32.4603H190.257V38.7312H196.207L198.131 36.6706L199.966 38.7312H202.874V36.6264H204.753C206.05 36.6264 207.348 36.2679 207.348 34.5209C207.348 32.8188 206.006 32.4603 204.842 32.4603ZM212.135 35.0587C211.911 35.148 211.688 35.148 211.419 35.148L209.585 35.1931V33.7591H211.419C211.688 33.7591 211.956 33.7591 212.135 33.8936C212.314 33.9835 212.448 34.1625 212.448 34.4313C212.448 34.7002 212.314 34.9242 212.135 35.0587ZM204.842 35.372H202.874V33.7591H204.842C205.379 33.7591 205.737 33.9835 205.737 34.5209C205.737 35.0587 205.379 35.372 204.842 35.372ZM199.071 35.5957L201.397 33.1325V38.1941L199.071 35.5957ZM195.447 37.4327H191.733V36.1783H195.044V34.9245H191.733V33.7595H195.491L197.147 35.596L195.447 37.4327ZM227.839 27.936H225.691L222.873 23.2325V27.936H219.831L219.249 26.5472H216.117L215.535 27.936H213.79C213.074 27.936 212.135 27.7568 211.598 27.219C211.106 26.6816 210.838 25.965 210.838 24.8451C210.838 23.9044 210.972 23.0532 211.643 22.3814C212.09 21.8885 212.895 21.6648 213.924 21.6648H215.356V23.0088H213.924C213.388 23.0088 213.074 23.0984 212.761 23.3672C212.493 23.6361 212.358 24.1287 212.358 24.8006C212.358 25.4724 212.493 25.9653 212.761 26.279C212.985 26.5027 213.388 26.5923 213.79 26.5923H214.461L216.609 21.6651H218.846L221.351 27.5778V21.6648H223.678L226.318 26.0098V21.6648H227.839L227.839 27.936ZM210.077 21.6648H208.556V27.936H210.077V21.6648ZM206.9 21.9337C206.408 21.6648 205.871 21.6648 205.111 21.6648H201.666V27.936H203.142V25.6513H204.753C205.29 25.6513 205.648 25.6961 205.871 25.9202C206.14 26.2338 206.095 26.7716 206.095 27.1298V27.936H207.615V26.6816C207.615 26.1443 207.571 25.8754 207.348 25.5617C207.213 25.3824 206.945 25.1584 206.632 25.0243C207.034 24.8451 207.706 24.3524 207.706 23.3669C207.706 22.6503 207.392 22.247 206.9 21.9337ZM200.592 26.6371H197.102V25.3828H200.547V24.0839H197.102V22.964H200.592V21.6651H195.581V27.9363H200.592V26.6371ZM194.462 21.6648H192.002L190.167 25.9202L188.199 21.6648H185.783V27.5775L183.232 21.6648H180.996L178.311 27.936H179.922L180.503 26.5472H183.635L184.216 27.936H187.259V23.0088L189.451 27.936H190.748L192.941 23.0088V27.936H194.462L194.462 21.6648ZM218.712 25.2036L217.683 22.7399L216.654 25.2036H218.712ZM205.737 24.2184C205.514 24.3528 205.29 24.3528 204.977 24.3528H203.142V22.9643H204.976C205.245 22.9643 205.558 22.9643 205.737 23.0539C205.916 23.1884 206.005 23.3676 206.005 23.6361C206.005 23.9047 205.916 24.1284 205.737 24.2184ZM181.04 25.2036L182.069 22.7399L183.098 25.2036H181.04ZM231.642 2H178.266V24.5765L180.1 20.4107H183.993L184.53 21.441V20.4107H189.093L190.122 22.6503L191.107 20.4107H205.648C206.318 20.4107 206.9 20.5451 207.348 20.9033V20.4107H211.33V20.9033C212 20.5448 212.85 20.4107 213.835 20.4107H219.606L220.144 21.441V20.4107H224.394L225.02 21.441V20.4107H229.181V29.1904H224.976L224.171 27.8467V29.1904H218.936L218.354 27.7571H217.056L216.475 29.1904H213.746C212.672 29.1904 211.866 28.9215 211.33 28.653V29.1904H204.842V27.1746C204.842 26.9057 204.798 26.8609 204.619 26.8609H204.395V29.19H191.867V28.0701L191.42 29.19H188.78L188.333 28.115V29.19H183.277L182.74 27.7568H181.443L180.861 29.19H178.266V55.6638H231.642V39.5823C231.061 39.8511 230.255 39.9856 229.45 39.9856H225.557V39.4478C225.11 39.8066 224.304 39.9856 223.544 39.9856H211.285V37.9701C211.285 37.7012 211.24 37.7012 211.016 37.7012H210.793V39.9856H206.766V37.6116C206.095 37.9249 205.334 37.9249 204.663 37.9249H204.216V39.9856H199.294L198.131 38.6416L196.834 39.9856H188.914V31.2062H196.968L198.131 32.5496L199.384 31.2062H204.798C205.424 31.2062 206.453 31.2956 206.9 31.7433V31.2062H211.732C212.224 31.2062 213.164 31.2956 213.79 31.7433V31.2062H221.083V31.7436C221.486 31.3851 222.247 31.2066 222.918 31.2066H226.989V31.7436C227.437 31.4303 228.063 31.2066 228.868 31.2066H231.642V2Z" fill="#0077A6"/>
</g>
<path fill-rule="evenodd" clip-rule="evenodd" d="M290.791 29.3714L291.156 27.0392L290.342 27.0201H286.452L289.155 9.80924C289.163 9.75713 289.191 9.70875 289.23 9.67433C289.27 9.63991 289.321 9.62103 289.375 9.62103H295.934C298.111 9.62103 299.614 10.076 300.399 10.9739C300.767 11.3952 301.001 11.8355 301.114 12.3199C301.233 12.8283 301.235 13.4356 301.119 14.1764L301.111 14.2303V14.7051L301.479 14.9143C301.788 15.0793 302.034 15.2681 302.223 15.4843C302.538 15.8445 302.741 16.3024 302.827 16.845C302.916 17.4031 302.887 18.0675 302.741 18.8195C302.573 19.6844 302.302 20.4379 301.936 21.0542C301.599 21.6222 301.169 22.0934 300.66 22.4584C300.173 22.8053 299.595 23.0687 298.941 23.2372C298.307 23.4028 297.585 23.4864 296.792 23.4864H296.282C295.917 23.4864 295.563 23.6184 295.284 23.8549C295.005 24.0964 294.821 24.4264 294.764 24.7873L294.725 24.9974L294.079 29.1083L294.05 29.2591C294.042 29.3069 294.029 29.3307 294.009 29.3468C293.992 29.3616 293.967 29.3714 293.942 29.3714H290.791Z" fill="#28356A"/>
<path fill-rule="evenodd" clip-rule="evenodd" d="M301.827 14.2852C301.808 14.4109 301.785 14.5393 301.76 14.6712C300.895 19.1304 297.936 20.6709 294.156 20.6709H292.232C291.769 20.6709 291.38 21.0078 291.308 21.4656L290.043 29.5181C289.997 29.8188 290.227 30.0896 290.529 30.0896H293.943C294.347 30.0896 294.69 29.7948 294.754 29.3946L294.787 29.2206L295.43 25.1258L295.471 24.9012C295.534 24.4996 295.878 24.2046 296.282 24.2046H296.793C300.1 24.2046 302.689 22.8567 303.445 18.9556C303.761 17.326 303.598 15.9653 302.761 15.0083C302.508 14.7198 302.194 14.4803 301.827 14.2852Z" fill="#298FC2"/>
<path fill-rule="evenodd" clip-rule="evenodd" d="M300.922 13.9229C300.79 13.8842 300.654 13.8492 300.514 13.8175C300.373 13.7866 300.229 13.7593 300.081 13.7353C299.562 13.6511 298.993 13.6112 298.384 13.6112H293.243C293.117 13.6112 292.996 13.6399 292.889 13.6918C292.652 13.8063 292.476 14.0317 292.433 14.3076L291.339 21.2629L291.308 21.4656C291.38 21.0078 291.769 20.6709 292.231 20.6709H294.156C297.935 20.6709 300.895 19.1296 301.76 14.6712C301.786 14.5393 301.807 14.4108 301.827 14.2852C301.608 14.1686 301.371 14.0688 301.116 13.9839C301.053 13.9628 300.988 13.9426 300.922 13.9229Z" fill="#22284F"/>
<path fill-rule="evenodd" clip-rule="evenodd" d="M292.433 14.3076C292.475 14.0317 292.651 13.8063 292.889 13.6926C292.997 13.6405 293.116 13.6118 293.243 13.6118H298.384C298.993 13.6118 299.562 13.6519 300.081 13.7361C300.229 13.7599 300.373 13.7874 300.514 13.8183C300.653 13.8498 300.79 13.885 300.922 13.9235C300.988 13.9432 301.053 13.9637 301.116 13.9839C301.371 14.0689 301.609 14.1694 301.827 14.2852C302.085 12.6373 301.825 11.5154 300.938 10.4994C299.96 9.38078 298.194 8.9021 295.935 8.9021H289.375C288.914 8.9021 288.52 9.23899 288.449 9.69761L285.717 27.0854C285.663 27.4294 285.927 27.7397 286.273 27.7397H290.322L292.433 14.3076Z" fill="#28356A"/>
<path fill-rule="evenodd" clip-rule="evenodd" d="M271.465 34.1052H266.682C266.355 34.1052 266.077 34.344 266.025 34.6685L264.091 46.9813C264.053 47.2244 264.24 47.4433 264.486 47.4433H266.769C267.096 47.4433 267.374 47.2047 267.426 46.8796L267.947 43.5585C267.998 43.2335 268.276 42.9947 268.603 42.9947H270.117C273.267 42.9947 275.085 41.4641 275.56 38.4311C275.774 37.104 275.569 36.0615 274.95 35.3312C274.271 34.5294 273.065 34.1052 271.465 34.1052ZM272.016 38.6024C271.755 40.3254 270.443 40.3254 269.176 40.3254H268.454L268.96 37.1075C268.99 36.913 269.158 36.7698 269.354 36.7698H269.685C270.548 36.7698 271.363 36.7698 271.784 37.2641C272.035 37.5589 272.112 37.997 272.016 38.6024Z" fill="#28356A"/>
<path fill-rule="evenodd" clip-rule="evenodd" d="M285.882 38.4538H283.592C283.397 38.4538 283.228 38.597 283.198 38.7915L283.097 39.4346L282.937 39.2015C282.441 38.479 281.335 38.2375 280.232 38.2375C277.701 38.2375 275.54 40.1621 275.119 42.8617C274.9 44.2083 275.211 45.496 275.972 46.394C276.67 47.2196 277.668 47.5638 278.856 47.5638C280.896 47.5638 282.026 46.2473 282.026 46.2473L281.924 46.8863C281.886 47.1305 282.073 47.3496 282.317 47.3496H284.38C284.708 47.3496 284.985 47.1108 285.037 46.7858L286.274 38.9158C286.314 38.6735 286.127 38.4538 285.882 38.4538ZM282.69 42.9291C282.469 44.2427 281.43 45.1245 280.106 45.1245C279.441 45.1245 278.91 44.9104 278.568 44.5046C278.23 44.1017 278.101 43.528 278.209 42.889C278.415 41.5867 279.471 40.6759 280.775 40.6759C281.426 40.6759 281.954 40.8931 282.302 41.3021C282.651 41.7157 282.79 42.2929 282.69 42.9291Z" fill="#28356A"/>
<path fill-rule="evenodd" clip-rule="evenodd" d="M297.903 38.6507H295.601C295.382 38.6507 295.176 38.7602 295.051 38.9435L291.877 43.6377L290.532 39.1266C290.447 38.8444 290.188 38.6507 289.894 38.6507H287.633C287.358 38.6507 287.167 38.9203 287.254 39.1801L289.789 46.6491L287.406 50.027C287.219 50.2931 287.407 50.6589 287.731 50.6589H290.03C290.248 50.6589 290.452 50.5521 290.576 50.3726L298.23 39.279C298.413 39.0137 298.225 38.6507 297.903 38.6507Z" fill="#28356A"/>
<path fill-rule="evenodd" clip-rule="evenodd" d="M305.575 34.1052H300.792C300.465 34.1052 300.187 34.344 300.136 34.6685L298.202 46.9813C298.163 47.2244 298.351 47.4433 298.595 47.4433H301.049C301.277 47.4433 301.472 47.2763 301.508 47.0488L302.057 43.5585C302.107 43.2335 302.386 42.9947 302.713 42.9947H304.226C307.377 42.9947 309.194 41.4641 309.67 38.4311C309.885 37.104 309.678 36.0615 309.06 35.3312C308.38 34.5294 307.176 34.1052 305.575 34.1052ZM306.127 38.6024C305.866 40.3254 304.555 40.3254 303.286 40.3254H302.565L303.072 37.1075C303.102 36.913 303.269 36.7698 303.465 36.7698H303.796C304.659 36.7698 305.474 36.7698 305.895 37.2641C306.146 37.5589 306.223 37.997 306.127 38.6024Z" fill="#298FC2"/>
<path fill-rule="evenodd" clip-rule="evenodd" d="M319.99 38.4538H317.701C317.504 38.4538 317.337 38.597 317.308 38.7915L317.206 39.4346L317.046 39.2015C316.55 38.479 315.445 38.2375 314.341 38.2375C311.811 38.2375 309.65 40.1621 309.229 42.8617C309.011 44.2083 309.321 45.496 310.081 46.394C310.781 47.2196 311.778 47.5638 312.966 47.5638C315.005 47.5638 316.136 46.2473 316.136 46.2473L316.034 46.8863C315.995 47.1305 316.183 47.3496 316.428 47.3496H318.49C318.817 47.3496 319.095 47.1108 319.146 46.7858L320.385 38.9158C320.422 38.6735 320.235 38.4538 319.99 38.4538ZM316.797 42.9291C316.578 44.2427 315.538 45.1245 314.213 45.1245C313.55 45.1245 313.017 44.9104 312.676 44.5046C312.337 44.1017 312.21 43.528 312.316 42.889C312.524 41.5867 313.578 40.6759 314.883 40.6759C315.533 40.6759 316.062 40.8931 316.41 41.3021C316.76 41.7157 316.899 42.2929 316.797 42.9291Z" fill="#298FC2"/>
<path fill-rule="evenodd" clip-rule="evenodd" d="M322.499 34.4437L320.536 46.9819C320.497 47.225 320.685 47.4439 320.929 47.4439H322.902C323.23 47.4439 323.508 47.2053 323.559 46.8802L325.494 34.568C325.533 34.3249 325.346 34.1052 325.101 34.1052H322.892C322.697 34.1058 322.529 34.2492 322.499 34.4437Z" fill="#298FC2"/>
<g clip-path="url(#clip2_4982_3565)">
<mask id="mask0_4982_3565" style="mask-type:luminance" maskUnits="userSpaceOnUse" x="356" y="8" width="78" height="42">
<path d="M433.5 8H356.5V50H433.5V8Z" fill="white"/>
</mask>
<g mask="url(#mask0_4982_3565)">
<path d="M356.5 14.1851C356.5 11.6015 358.566 9.50507 361.118 9.50507H428.871C431.421 9.50507 433.489 11.6015 433.489 14.1851V43.7893C433.489 46.3729 431.421 48.4672 428.871 48.4672H361.118C358.566 48.4672 356.5 46.3729 356.5 43.7893V14.1851Z" fill="white"/>
<path d="M356.553 13.7128C356.553 11.3365 358.456 9.40875 360.801 9.40875H429.254C431.6 9.40875 433.5 11.3365 433.5 13.7128V13.8496H356.553V13.7128ZM433.5 44.1803V44.2872C433.5 46.6635 431.6 48.5912 429.254 48.5912H360.801C358.456 48.5912 356.553 46.6635 356.553 44.2872V44.1803H433.5Z" fill="#FBB110"/>
<path d="M409.807 28.9539C409.807 34.9696 414.619 39.8464 420.556 39.8464C426.492 39.8464 431.306 34.9697 431.306 28.954C431.306 22.9361 426.492 18.0594 420.556 18.0594C414.619 18.0594 409.807 22.9361 409.807 28.9539ZM358.556 28.9539C358.556 34.9696 363.37 39.8464 369.307 39.8464C375.243 39.8464 380.057 34.9697 380.057 28.954C380.057 22.9361 375.243 18.0594 369.307 18.0594C363.37 18.0594 358.556 22.9361 358.556 28.9539ZM433.5 42.118H380.497C381.453 41.4384 382.343 40.5088 383.313 39.2544L388.712 32.2728L391.07 35.2923L393.694 31.7555L391.4 28.7958L396.895 21.6882C398.64 19.4336 395.303 16.7836 393.558 19.0382L388.702 25.321L383.764 18.9548C382.017 16.7067 378.686 19.363 380.434 21.6133L386.014 28.798L379.976 36.6045C377.831 39.3784 375.69 41.9214 371.44 42.118H356.553V15.9117H409.277C408.37 16.5828 407.515 17.4824 406.587 18.6834L401.19 25.6629L398.83 22.6455L396.208 26.1823L398.502 29.1399L393.005 36.2476C391.262 38.5022 394.599 41.1521 396.342 38.8976L401.201 32.6168L406.138 38.9808C407.885 41.2311 411.216 38.5749 409.468 36.3246L403.888 29.1378L409.926 21.3333C411.897 18.7817 413.865 16.4268 417.471 15.9117H433.5V42.118ZM414.121 28.9539C414.121 25.351 417.002 22.4317 420.556 22.4317C424.11 22.4317 426.99 25.351 426.99 28.9539C426.99 32.5548 424.11 35.474 420.556 35.474C417.002 35.474 414.121 32.5548 414.121 28.9539ZM362.872 28.9539C362.872 25.351 365.753 22.4317 369.307 22.4317C372.859 22.4317 375.741 25.351 375.741 28.9539C375.741 32.5548 372.859 35.474 369.307 35.474C365.753 35.474 362.872 32.5548 362.872 28.9539Z" fill="#E70020"/>
</g>
</g>
<defs>
<clipPath id="clip0_4982_3565">
<rect width="53" height="41" fill="white" transform="translate(104.5 8.5)"/>
</clipPath>
<clipPath id="clip1_4982_3565">
<rect width="55" height="54" fill="white" transform="translate(177.5 2)"/>
</clipPath>
<clipPath id="clip2_4982_3565">
<rect width="77" height="42" fill="white" transform="translate(356.5 8)"/>
</clipPath>
</defs>
</svg>
