<svg xmlns="http://www.w3.org/2000/svg" viewBox="0 0 137.82 137.82"><defs><style>.cls-1{fill:#d244d1;}</style></defs><title>material descargable</title><g id="Capa_2" data-name="Capa 2"><g id="Capa_3" data-name="Capa 3"><path class="cls-1" d="M91,70.37,76,84.89V36.24a7.07,7.07,0,0,0-14.14,0V84.89l-15-14.52A7.07,7.07,0,0,0,37,80.52l27,26.14a7.06,7.06,0,0,0,9.84,0l27-26.14A7.07,7.07,0,1,0,91,70.37Z"/><path class="cls-1" d="M68.91,137.82a68.91,68.91,0,1,1,68.91-68.91A69,69,0,0,1,68.91,137.82Zm0-128.71a59.81,59.81,0,1,0,59.81,59.8A59.87,59.87,0,0,0,68.91,9.11Z"/></g></g></svg>