<svg xmlns="http://www.w3.org/2000/svg" viewBox="0 0 96.18 136.48"><defs><style>.cls-1{fill:#3f1168;}</style></defs><title>leccion bloqueada</title><g id="Capa_2" data-name="Capa 2"><g id="Capa_3" data-name="Capa 3"><path class="cls-1" d="M28.38,33.45a19.71,19.71,0,1,1,39.42,0V47.17H81.54V33.45A33.45,33.45,0,0,0,48.09,0h0A33.46,33.46,0,0,0,14.64,33.45V47.17H28.38Z"/><path class="cls-1" d="M86.66,54H9.52A9.52,9.52,0,0,0,0,63.56V127a9.52,9.52,0,0,0,9.52,9.52H86.66A9.52,9.52,0,0,0,96.18,127V63.56A9.52,9.52,0,0,0,86.66,54ZM52.9,96.89v11.36a4.81,4.81,0,0,1-4.81,4.81h0a4.81,4.81,0,0,1-4.81-4.81V96.89a10.31,10.31,0,1,1,9.62,0Z"/></g></g></svg>