<svg xmlns="http://www.w3.org/2000/svg" viewBox="0 0 137.82 137.82"><defs><style>.cls-1{fill:#d244d1;}</style></defs><title>tarea</title><g id="Capa_2" data-name="Capa 2"><g id="Capa_3" data-name="Capa 3"><path class="cls-1" d="M68.91,137.82a68.91,68.91,0,1,1,68.91-68.91A69,69,0,0,1,68.91,137.82Zm0-128.71a59.81,59.81,0,1,0,59.81,59.8A59.87,59.87,0,0,0,68.91,9.11Z"/><path class="cls-1" d="M95.74,61a3.33,3.33,0,0,0-.62-2L71.79,26.08a3.37,3.37,0,0,0-4.72-.8,3.62,3.62,0,0,0-.81.8L42.93,59a3.47,3.47,0,0,0-.74,2L42,127.38a61.6,61.6,0,0,0,7,2.72l.1-65.87h7.34L56.27,132A64.89,64.89,0,0,0,63,133l.14-68.76H74.86L75,133a65.3,65.3,0,0,0,6.77-1l-.15-67.75H89l.1,65.8a63.88,63.88,0,0,0,6.77-2.67Zm-43.5-3.49L69,33.78,85.81,57.46Z"/></g></g></svg>