<svg width="18" height="18" viewBox="0 0 18 18" fill="none" xmlns="http://www.w3.org/2000/svg">
<path d="M11.1219 9.00016L17.0594 3.06266C17.3412 2.78136 17.4997 2.39965 17.5 2.00149C17.5004 1.60332 17.3426 1.22133 17.0613 0.939535C16.78 0.657743 16.3983 0.499236 16.0001 0.498885C15.6019 0.498533 15.2199 0.656365 14.9381 0.937661L9.00065 6.87516L3.06315 0.937661C2.78136 0.655868 2.39916 0.497559 2.00065 0.497559C1.60213 0.497559 1.21994 0.655868 0.938149 0.937661C0.656356 1.21945 0.498047 1.60165 0.498047 2.00016C0.498047 2.39868 0.656356 2.78087 0.938149 3.06266L6.87565 9.00016L0.938149 14.9377C0.656356 15.2194 0.498047 15.6016 0.498047 16.0002C0.498047 16.3987 0.656356 16.7809 0.938149 17.0627C1.21994 17.3444 1.60213 17.5028 2.00065 17.5028C2.39916 17.5028 2.78136 17.3444 3.06315 17.0627L9.00065 11.1252L14.9381 17.0627C15.2199 17.3444 15.6021 17.5028 16.0006 17.5028C16.3992 17.5028 16.7814 17.3444 17.0631 17.0627C17.3449 16.7809 17.5032 16.3987 17.5032 16.0002C17.5032 15.6016 17.3449 15.2194 17.0631 14.9377L11.1219 9.00016Z" fill="black"/>
</svg>
