<svg width="25" height="24" viewBox="0 0 25 24" fill="none" xmlns="http://www.w3.org/2000/svg">
<path d="M22.0597 2.49611C21.9912 2.42085 21.9082 2.36025 21.8156 2.31799C21.7231 2.27573 21.6229 2.25267 21.5211 2.25022C21.4194 2.24777 21.3182 2.26596 21.2237 2.30371C21.1292 2.34147 21.0434 2.39798 20.9713 2.46986L20.3915 3.04689C20.3212 3.11721 20.2817 3.21255 20.2817 3.31197C20.2817 3.41138 20.3212 3.50673 20.3915 3.57704L20.923 4.10767C20.9579 4.14268 20.9993 4.17046 21.0449 4.18941C21.0905 4.20837 21.1394 4.21812 21.1888 4.21812C21.2382 4.21812 21.2871 4.20837 21.3327 4.18941C21.3783 4.17046 21.4197 4.14268 21.4546 4.10767L22.0199 3.54517C22.3058 3.2597 22.3326 2.7947 22.0597 2.49611ZM19.2191 4.21876L10.7572 12.6656C10.7059 12.7167 10.6686 12.7802 10.649 12.8499L10.2576 14.0156C10.2482 14.0473 10.2475 14.0808 10.2556 14.1128C10.2638 14.1448 10.2804 14.174 10.3037 14.1973C10.327 14.2207 10.3562 14.2373 10.3882 14.2454C10.4202 14.2535 10.4537 14.2528 10.4854 14.2435L11.6502 13.852C11.7199 13.8324 11.7833 13.7951 11.8344 13.7438L20.2813 5.28095C20.3595 5.20197 20.4033 5.09534 20.4033 4.98423C20.4033 4.87312 20.3595 4.7665 20.2813 4.68751L19.8149 4.21876C19.7358 4.1399 19.6287 4.09562 19.517 4.09562C19.4053 4.09562 19.2982 4.1399 19.2191 4.21876Z" fill="black"/>
<path d="M18.6097 9.07781L12.8961 14.8027C12.6753 15.024 12.4039 15.1883 12.1053 15.2812L10.8912 15.6877C10.6031 15.769 10.2985 15.7721 10.0088 15.6965C9.7191 15.621 9.45477 15.4696 9.24307 15.2579C9.03136 15.0462 8.87994 14.7818 8.80439 14.4921C8.72885 14.2024 8.73192 13.8978 8.81328 13.6097L9.21969 12.3956C9.31238 12.0972 9.47632 11.8258 9.69734 11.6048L15.4222 5.89031C15.4747 5.8379 15.5104 5.77109 15.5249 5.69835C15.5394 5.62562 15.532 5.55021 15.5037 5.48167C15.4753 5.41313 15.4273 5.35454 15.3657 5.3133C15.304 5.27206 15.2315 5.25003 15.1573 5.25H5.375C4.67881 5.25 4.01113 5.52656 3.51884 6.01884C3.02656 6.51113 2.75 7.17881 2.75 7.875V19.125C2.75 19.8212 3.02656 20.4889 3.51884 20.9812C4.01113 21.4734 4.67881 21.75 5.375 21.75H16.625C17.3212 21.75 17.9889 21.4734 18.4812 20.9812C18.9734 20.4889 19.25 19.8212 19.25 19.125V9.34266C19.25 9.26849 19.2279 9.19599 19.1867 9.13434C19.1455 9.07269 19.0869 9.02465 19.0183 8.9963C18.9498 8.96795 18.8744 8.96057 18.8016 8.97507C18.7289 8.98958 18.6621 9.02534 18.6097 9.07781Z" fill="black"/>
</svg>
