<svg width="21" height="18" viewBox="0 0 21 18" fill="none" xmlns="http://www.w3.org/2000/svg">
<path d="M6 9C6 8.80109 6.07902 8.61032 6.21967 8.46967C6.36032 8.32902 6.55109 8.25 6.75 8.25H13.5V3.375C13.5 1.875 11.9161 0.75 10.5 0.75H3.375C2.67904 0.750744 2.01179 1.02755 1.51967 1.51967C1.02755 2.01179 0.750744 2.67904 0.75 3.375V14.625C0.750744 15.321 1.02755 15.9882 1.51967 16.4803C2.01179 16.9725 2.67904 17.2493 3.375 17.25H10.875C11.571 17.2493 12.2382 16.9725 12.7303 16.4803C13.2225 15.9882 13.4993 15.321 13.5 14.625V9.75H6.75C6.55109 9.75 6.36032 9.67098 6.21967 9.53033C6.07902 9.38968 6 9.19891 6 9ZM20.0302 8.46984L16.2802 4.71984C16.1384 4.58513 15.9495 4.51114 15.754 4.51364C15.5584 4.51614 15.3715 4.59495 15.2332 4.73325C15.0949 4.87155 15.0161 5.0584 15.0136 5.25398C15.0111 5.44955 15.0851 5.63836 15.2198 5.78016L17.6892 8.25H13.5V9.75H17.6892L15.2198 12.2198C15.1473 12.2888 15.0892 12.3716 15.0492 12.4633C15.0091 12.555 14.9878 12.6539 14.9865 12.754C14.9852 12.8541 15.004 12.9534 15.0417 13.0461C15.0794 13.1389 15.1353 13.2231 15.2061 13.2939C15.2769 13.3647 15.3611 13.4206 15.4539 13.4583C15.5466 13.496 15.6459 13.5148 15.746 13.5135C15.8461 13.5122 15.945 13.4909 16.0367 13.4508C16.1284 13.4108 16.2112 13.3527 16.2802 13.2802L20.0302 9.53016C20.1707 9.38952 20.2497 9.19883 20.2497 9C20.2497 8.80117 20.1707 8.61048 20.0302 8.46984Z" fill="#6717CD"/>
</svg>
