<svg width="174" height="144" viewBox="0 0 174 144" fill="none" xmlns="http://www.w3.org/2000/svg">
<g filter="url(#filter0_d_515_1396)">
<rect x="41.3229" y="41.3229" width="90.6875" height="61.3541" rx="14.5524" fill="white" stroke="#D9D9D9" stroke-width="2.64589"/>
<path fill-rule="evenodd" clip-rule="evenodd" d="M87.1932 86.3493C84.0157 89.0913 79.894 90.7466 75.3901 90.7466C65.3403 90.7466 57.1934 82.5051 57.1934 72.3386C57.1934 62.1722 65.3403 53.9307 75.3901 53.9307C79.894 53.9307 84.0157 55.5859 87.1932 58.328C90.3707 55.5859 94.4924 53.9307 98.9963 53.9307C109.046 53.9307 117.193 62.1722 117.193 72.3386C117.193 82.5051 109.046 90.7466 98.9963 90.7466C94.4924 90.7466 90.3707 89.0913 87.1932 86.3493Z" fill="#ED0006"/>
<path fill-rule="evenodd" clip-rule="evenodd" d="M87.1924 86.3493C91.105 82.9729 93.586 77.9489 93.586 72.3386C93.586 66.7284 91.105 61.7043 87.1924 58.328C90.3699 55.5859 94.4916 53.9307 98.9955 53.9307C109.045 53.9307 117.192 62.1722 117.192 72.3386C117.192 82.5051 109.045 90.7466 98.9955 90.7466C94.4916 90.7466 90.3699 89.0913 87.1924 86.3493Z" fill="#F9A000"/>
<path fill-rule="evenodd" clip-rule="evenodd" d="M87.1934 86.3495C91.106 82.9731 93.587 77.9491 93.587 72.3388C93.587 66.7285 91.106 61.7045 87.1934 58.3281C83.2808 61.7045 80.7998 66.7285 80.7998 72.3388C80.7998 77.9491 83.2808 82.9731 87.1934 86.3495Z" fill="#FF5E00"/>
</g>
<defs>
<filter id="filter0_d_515_1396" x="0" y="0" width="173.333" height="144" filterUnits="userSpaceOnUse" color-interpolation-filters="sRGB">
<feFlood flood-opacity="0" result="BackgroundImageFix"/>
<feColorMatrix in="SourceAlpha" type="matrix" values="0 0 0 0 0 0 0 0 0 0 0 0 0 0 0 0 0 0 127 0" result="hardAlpha"/>
<feOffset/>
<feGaussianBlur stdDeviation="20"/>
<feColorMatrix type="matrix" values="0 0 0 0 0 0 0 0 0 0 0 0 0 0 0 0 0 0 0.08 0"/>
<feBlend mode="normal" in2="BackgroundImageFix" result="effect1_dropShadow_515_1396"/>
<feBlend mode="normal" in="SourceGraphic" in2="effect1_dropShadow_515_1396" result="shape"/>
</filter>
</defs>
</svg>
