<svg width="174" height="144" viewBox="0 0 174 144" fill="none" xmlns="http://www.w3.org/2000/svg">
<g filter="url(#filter0_d_724_2112)">
<rect x="41.3229" y="41.3229" width="90.6875" height="61.3541" rx="14.5524" fill="white" stroke="#D9D9D9" stroke-width="2.64589"/>
<path fill-rule="evenodd" clip-rule="evenodd" d="M80.1171 89.195L80.723 85.3307L79.3733 85.2991H72.928L77.4072 56.7828C77.4212 56.6964 77.4663 56.6163 77.5322 56.5593C77.5984 56.5022 77.6828 56.4709 77.7711 56.4709H88.6388C92.247 56.4709 94.7369 57.2246 96.0367 58.7125C96.6462 59.4105 97.0343 60.14 97.2222 60.9426C97.4192 61.785 97.4224 62.7912 97.2303 64.0187L97.2164 64.108V64.8946L97.8258 65.2413C98.3389 65.5147 98.7469 65.8275 99.0597 66.1856C99.5809 66.7826 99.9181 67.5411 100.061 68.4402C100.208 69.3649 100.159 70.4657 99.9181 71.7117C99.64 73.1448 99.1905 74.3932 98.5833 75.4144C98.0251 76.3554 97.3137 77.1362 96.469 77.741C95.6625 78.3158 94.7044 78.7521 93.6211 79.0313C92.5713 79.3057 91.3744 79.4442 90.0616 79.4442H89.2159C88.6113 79.4442 88.0238 79.6628 87.5627 80.0548C87.1002 80.455 86.7945 81.0018 86.7007 81.5997L86.6368 81.9477L85.5661 88.759L85.5178 89.009C85.5048 89.0881 85.4827 89.1276 85.4503 89.1543C85.4214 89.1787 85.3798 89.195 85.3393 89.195H80.1171Z" fill="#28356A"/>
<path fill-rule="evenodd" clip-rule="evenodd" d="M98.4035 64.1987C98.3714 64.407 98.3341 64.6197 98.2925 64.8384C96.8594 72.2268 91.9559 74.7792 85.6936 74.7792H82.5051C81.7392 74.7792 81.0937 75.3373 80.9745 76.0959L78.8797 89.438C78.8021 89.9362 79.1844 90.3849 79.6848 90.3849H85.3402C86.0097 90.3849 86.5787 89.8964 86.6841 89.2333L86.7396 88.9449L87.8044 82.1604L87.8729 81.7882C87.9771 81.1229 88.5473 80.6341 89.2168 80.6341H90.0626C95.5417 80.6341 99.8312 78.4007 101.085 71.9371C101.608 69.2371 101.337 66.9825 99.9516 65.3969C99.5323 64.9189 99.012 64.522 98.4035 64.1987Z" fill="#298FC2"/>
<path fill-rule="evenodd" clip-rule="evenodd" d="M96.9036 63.599C96.6845 63.5348 96.4586 63.4768 96.2269 63.4243C95.9939 63.3732 95.7553 63.3279 95.5097 63.2881C94.65 63.1487 93.7078 63.0825 92.6988 63.0825H84.1807C83.9707 63.0825 83.7715 63.1301 83.5933 63.2161C83.2003 63.4058 82.9085 63.7792 82.8378 64.2364L81.0256 75.7605L80.9736 76.0964C81.0927 75.3378 81.7382 74.7796 82.5042 74.7796H85.6927C91.955 74.7796 96.8584 72.2259 98.2916 64.8389C98.3344 64.6202 98.3705 64.4074 98.4026 64.1992C98.0401 64.006 97.6474 63.8408 97.2245 63.7C97.12 63.6651 97.0123 63.6316 96.9036 63.599Z" fill="#22284F"/>
<path fill-rule="evenodd" clip-rule="evenodd" d="M82.8385 64.2362C82.9092 63.779 83.201 63.4056 83.594 63.2172C83.7735 63.1309 83.9714 63.0833 84.1814 63.0833H92.6995C93.7085 63.0833 94.6507 63.1498 95.5104 63.2892C95.756 63.3287 95.9946 63.3743 96.2276 63.4254C96.4593 63.4776 96.6852 63.5359 96.9042 63.5998C97.013 63.6324 97.1207 63.6662 97.2262 63.6998C97.6491 63.8406 98.0421 64.0071 98.4046 64.199C98.831 61.4687 98.401 59.6097 96.9309 57.9264C95.3098 56.0729 92.3844 55.2798 88.6409 55.2798H77.7728C77.0081 55.2798 76.3558 55.838 76.2377 56.5979L71.711 85.4074C71.6218 85.9774 72.0596 86.4916 72.6321 86.4916H79.3416L82.8385 64.2362Z" fill="#28356A"/>
</g>
<defs>
<filter id="filter0_d_724_2112" x="0" y="0" width="173.333" height="144" filterUnits="userSpaceOnUse" color-interpolation-filters="sRGB">
<feFlood flood-opacity="0" result="BackgroundImageFix"/>
<feColorMatrix in="SourceAlpha" type="matrix" values="0 0 0 0 0 0 0 0 0 0 0 0 0 0 0 0 0 0 127 0" result="hardAlpha"/>
<feOffset/>
<feGaussianBlur stdDeviation="20"/>
<feColorMatrix type="matrix" values="0 0 0 0 0 0 0 0 0 0 0 0 0 0 0 0 0 0 0.08 0"/>
<feBlend mode="normal" in2="BackgroundImageFix" result="effect1_dropShadow_724_2112"/>
<feBlend mode="normal" in="SourceGraphic" in2="effect1_dropShadow_724_2112" result="shape"/>
</filter>
</defs>
</svg>
