<svg width="174" height="144" viewBox="0 0 174 144" fill="none" xmlns="http://www.w3.org/2000/svg">
<g filter="url(#filter0_d_724_2116)">
<rect x="41.3229" y="41.3229" width="90.6875" height="61.3541" rx="14.5524" fill="white" stroke="#D9D9D9" stroke-width="2.64589"/>
<path fill-rule="evenodd" clip-rule="evenodd" d="M68.334 83.3552H62.6798L58.4399 67.1795C58.2386 66.4354 57.8113 65.7776 57.1828 65.4676C55.6142 64.6885 53.8856 64.0684 52 63.7557V63.1329H61.1085C62.3656 63.1329 63.3084 64.0684 63.4655 65.1549L65.6654 76.8229L71.3169 63.1329H76.8139L68.334 83.3552ZM79.9566 83.3552H74.6166L79.0137 63.1329H84.3536L79.9566 83.3552ZM91.2622 68.7351C91.4193 67.6459 92.3622 67.0231 93.4621 67.0231C95.1906 66.8668 97.0735 67.1795 98.6449 67.9559L99.5877 63.602C98.0163 62.9792 96.2878 62.6665 94.7192 62.6665C89.5364 62.6665 85.7651 65.4676 85.7651 69.3551C85.7651 72.3126 88.4365 73.8655 90.3221 74.8009C92.3622 75.7337 93.1479 76.3565 92.9907 77.2893C92.9907 78.6885 91.4193 79.3113 89.8507 79.3113C87.9651 79.3113 86.0794 78.8449 84.3537 78.0657L83.4108 82.4224C85.2965 83.1988 87.3365 83.5115 89.2222 83.5115C95.0335 83.6652 98.6449 80.8668 98.6449 76.6665C98.6449 71.3771 91.2622 71.0671 91.2622 68.7351ZM117.333 83.3552L113.093 63.1329H108.539C107.596 63.1329 106.653 63.7557 106.339 64.6885L98.4877 83.3552H103.985L105.082 80.4004H111.836L112.465 83.3552H117.333ZM109.325 68.5784L110.894 76.1998H106.496L109.325 68.5784Z" fill="#172B85"/>
</g>
<defs>
<filter id="filter0_d_724_2116" x="0" y="0" width="173.333" height="144" filterUnits="userSpaceOnUse" color-interpolation-filters="sRGB">
<feFlood flood-opacity="0" result="BackgroundImageFix"/>
<feColorMatrix in="SourceAlpha" type="matrix" values="0 0 0 0 0 0 0 0 0 0 0 0 0 0 0 0 0 0 127 0" result="hardAlpha"/>
<feOffset/>
<feGaussianBlur stdDeviation="20"/>
<feColorMatrix type="matrix" values="0 0 0 0 0 0 0 0 0 0 0 0 0 0 0 0 0 0 0.08 0"/>
<feBlend mode="normal" in2="BackgroundImageFix" result="effect1_dropShadow_724_2116"/>
<feBlend mode="normal" in="SourceGraphic" in2="effect1_dropShadow_724_2116" result="shape"/>
</filter>
</defs>
</svg>
