<svg width="16" height="18" viewBox="0 0 16 18" fill="none" xmlns="http://www.w3.org/2000/svg">
<path d="M2.23445 17.625C1.94665 17.6245 1.66394 17.5491 1.41414 17.4061C0.85164 17.0874 0.501953 16.4686 0.501953 15.7969V2.20315C0.501953 1.52955 0.85164 0.912678 1.41414 0.593928C1.66989 0.446945 1.96043 0.371359 2.25539 0.375069C2.55034 0.37878 2.83889 0.461652 3.09086 0.615022L14.7088 7.5694C14.951 7.72122 15.1506 7.93205 15.2889 8.18212C15.4273 8.43219 15.4999 8.7133 15.4999 8.99909C15.4999 9.28488 15.4273 9.56599 15.2889 9.81606C15.1506 10.0661 14.951 10.277 14.7088 10.4288L3.08898 17.385C2.83112 17.5409 2.53577 17.6239 2.23445 17.625Z" fill="#6717CD"/>
</svg>
