<svg width="66" height="66" viewBox="0 0 66 66" fill="none" xmlns="http://www.w3.org/2000/svg">
<path d="M32.9999 65.1907C50.735 65.1907 65.4253 50.5318 65.4253 32.7653C65.4253 15.0303 50.735 0.339966 32.9686 0.339966C15.2335 0.339966 0.574585 15.0303 0.574585 32.7653C0.574585 50.5318 15.2649 65.1907 32.9999 65.1907ZM11.4981 20.8687C11.4981 27.7116 16.2066 31.6039 24.6503 31.6039C25.6862 31.6039 26.2826 32.4828 25.6548 33.4559C24.1795 35.7787 23.7087 37.0657 23.7087 38.7607C23.7087 43.0297 27.3498 45.1642 29.9866 46.2L28.8251 51.0968C27.7893 55.4913 32.5605 57.5944 35.7936 54.1416L43.3899 45.9489C45.901 43.218 46.9683 41.1463 46.9683 38.8863C46.9683 37.2226 45.0535 33.864 43.1074 32.0748C41.2554 30.3169 39.4348 30.0344 36.2958 30.0344H34.6636L32.9686 26.7385L37.6456 24.9807C40.3451 26.7072 41.6635 27.6802 43.1701 27.6802C46.0894 27.6802 47.2508 24.4785 45.1163 22.1871L40.2195 17.0078C39.6231 16.4114 39.6545 15.9092 40.1568 15.2814C41.5379 13.7747 43.3899 11.6088 43.3899 9.16042C43.3899 8.50124 43.2643 7.90484 42.919 7.27705C53.0892 11.3263 60.403 21.2768 60.403 32.7653C60.403 47.7381 47.9727 60.1684 32.9999 60.1684C18.0272 60.1684 5.59691 47.7381 5.59691 32.7653C5.59691 25.9852 8.13946 19.7073 12.3457 14.8733C11.812 16.7881 11.4981 18.8284 11.4981 20.8687Z" fill="url(#paint0_linear_149_327)"/>
<defs>
<linearGradient id="paint0_linear_149_327" x1="0.574585" y1="0.339966" x2="65.4253" y2="65.1907" gradientUnits="userSpaceOnUse">
<stop stop-color="#8E2DE2"/>
<stop offset="1" stop-color="#4A00E0"/>
</linearGradient>
</defs>
</svg>
