<svg width="58" height="67" viewBox="0 0 58 67" fill="none" xmlns="http://www.w3.org/2000/svg">
<path d="M10.9197 66.1459H47.8337C53.8919 66.1459 57.4075 62.6303 57.4075 55.913V23.4248C57.4075 16.7075 53.8605 13.1918 47.0804 13.1918H42.6545C42.4975 6.16059 36.5021 0.322144 29 0.322144C21.5293 0.322144 15.5025 6.16059 15.3456 13.1918H10.9197C4.13954 13.1918 0.592529 16.7075 0.592529 23.4248V55.913C0.592529 62.6303 4.13954 66.1459 10.9197 66.1459ZM29 5.87809C33.3004 5.87809 36.4707 9.11121 36.5963 13.1918H21.4038C21.5293 9.11121 24.6997 5.87809 29 5.87809Z" fill="url(#paint0_linear_149_335)"/>
<defs>
<linearGradient id="paint0_linear_149_335" x1="0.592529" y1="0.322144" x2="65.7098" y2="56.5273" gradientUnits="userSpaceOnUse">
<stop stop-color="#8E2DE2"/>
<stop offset="1" stop-color="#4A00E0"/>
</linearGradient>
</defs>
</svg>
