<svg width="62" height="62" viewBox="0 0 62 62" fill="none" xmlns="http://www.w3.org/2000/svg">
<path d="M22.8701 54.2761C32.8206 64.2266 45.4706 63.4732 54.5107 54.4644C61.2909 47.6843 62.9231 40.5275 60.412 31.9895C59.0936 26.4022 55.8919 20.1557 53.0668 14.8195C51.6229 12.0572 49.8651 8.5102 48.7665 7.25462C47.5109 5.8107 45.6903 5.74792 44.2778 6.97211C42.6455 8.38464 42.5827 10.2366 43.5872 13.1872L47.1656 22.9808C47.5423 23.9224 47.4795 24.4875 47.1342 24.8327C46.7261 25.2408 46.1925 25.2722 45.4706 24.5502L22.0226 1.10227C20.5787 -0.341642 18.3186 -0.341642 16.8747 1.07089C15.4622 2.5148 15.4622 4.77485 16.8747 6.21876L33.9506 23.2947C33.1973 23.6713 32.3811 24.1108 31.5964 24.6444L11.8838 4.90041C10.4399 3.48788 8.17983 3.48788 6.73591 4.90041C5.32338 6.34432 5.32338 8.60437 6.73591 10.0169L26.2288 29.5098C25.6324 30.2317 25.0674 30.9537 24.5338 31.707L6.67313 13.8464C5.22921 12.4025 2.96917 12.4025 1.52525 13.8464C0.112723 15.2589 0.112723 17.5504 1.52525 18.9629L20.924 38.3616C20.5787 39.3347 20.2962 40.3078 20.1078 41.2495L6.61035 27.752C5.16643 26.3394 2.90639 26.308 1.46247 27.752C0.0499442 29.1645 0.0499442 31.4559 1.46247 32.8685L22.8701 54.2761Z" fill="url(#paint0_linear_149_329)"/>
<defs>
<linearGradient id="paint0_linear_149_329" x1="0.403076" y1="0.0153809" x2="61.8683" y2="61.1382" gradientUnits="userSpaceOnUse">
<stop stop-color="#8E2DE2"/>
<stop offset="1" stop-color="#4A00E0"/>
</linearGradient>
</defs>
</svg>
