<svg width="66" height="66" viewBox="0 0 66 66" fill="none" xmlns="http://www.w3.org/2000/svg">
<path d="M32.9686 65.2221C50.7664 65.2221 65.4567 50.5318 65.4567 32.7653C65.4567 14.9989 50.7351 0.308594 32.9372 0.308594C15.1707 0.308594 0.511841 14.9989 0.511841 32.7653C0.511841 50.5318 15.2021 65.2221 32.9686 65.2221ZM23.489 29.6892C21.5428 29.6892 19.9419 27.9628 19.9419 25.5771C19.9419 23.1288 21.5428 21.4337 23.489 21.4337C25.4037 21.4337 27.036 23.1288 27.036 25.5771C27.036 27.9628 25.4037 29.6892 23.489 29.6892ZM42.5738 29.6892C40.6276 29.6892 39.0582 27.9628 39.0582 25.5771C39.0582 23.1288 40.6276 21.4337 42.5738 21.4337C44.4885 21.4337 46.1522 23.1288 46.1522 25.5771C46.1522 27.9628 44.4885 29.6892 42.5738 29.6892ZM21.4486 41.9939C21.4486 41.2091 22.2334 40.8325 22.9867 41.1777C25.3723 42.4333 28.166 43.8772 32.9372 43.8772C37.7398 43.8772 40.5335 42.4019 42.9191 41.1777C43.641 40.8325 44.4572 41.2091 44.4572 41.9939C44.4572 44.1911 39.8429 48.774 32.9372 48.774C26.0629 48.774 21.4486 44.1911 21.4486 41.9939Z" fill="url(#paint0_linear_149_323)"/>
<defs>
<linearGradient id="paint0_linear_149_323" x1="0.511841" y1="0.308594" x2="65.4253" y2="65.2535" gradientUnits="userSpaceOnUse">
<stop stop-color="#8E2DE2"/>
<stop offset="1" stop-color="#4A00E0"/>
</linearGradient>
</defs>
</svg>
