<svg width="98" height="45" viewBox="0 0 98 45" fill="none" xmlns="http://www.w3.org/2000/svg">
<path d="M21.3877 22.0104C26.7344 22.0104 31.2266 17.2741 31.2266 11.1462C31.2266 5.16473 26.6855 0.599304 21.3877 0.599304C16.0898 0.599304 11.5244 5.23798 11.5488 11.195C11.5488 17.2741 16.0654 22.0104 21.3877 22.0104ZM49.0244 22.0104C54.3467 22.0104 58.8633 17.2741 58.8633 11.1462C58.8633 5.16473 54.3223 0.599304 49.0244 0.599304C43.7021 0.599304 39.1611 5.23798 39.1855 11.195C39.1855 17.2741 43.6777 22.0104 49.0244 22.0104ZM76.6123 22.0104C81.9346 22.0104 86.4512 17.2741 86.4512 11.1462C86.4512 5.16473 81.9102 0.599304 76.6123 0.599304C71.3145 0.599304 66.749 5.23798 66.7734 11.195C66.7734 17.2741 71.29 22.0104 76.6123 22.0104ZM6.15332 44.7155H36.5977C40.626 44.7155 42.0176 43.4948 42.0176 41.2731C42.0176 34.9743 34.0342 26.3317 21.3877 26.3317C8.7168 26.3317 0.757812 34.9743 0.757812 41.2731C0.757812 43.4948 2.14941 44.7155 6.15332 44.7155ZM49 26.3317C44.9229 26.3317 41.334 27.2595 38.3555 28.6999C42.6279 32.0446 45.3623 36.5124 45.3623 41.2731C45.3623 42.6159 45.0693 43.7634 44.4834 44.7155H64.2344C68.2383 44.7155 69.6299 43.4948 69.6299 41.2731C69.6299 34.9743 61.6709 26.3317 49 26.3317ZM76.6123 26.3317C72.5352 26.3317 68.9463 27.2595 65.9678 28.6999C70.2402 32.0202 72.9746 36.5124 72.9746 41.2731C72.9746 42.6159 72.6816 43.7634 72.1201 44.7155H91.8223C95.8262 44.7155 97.2178 43.4948 97.2178 41.2731C97.2178 34.9743 89.2588 26.3317 76.6123 26.3317Z" fill="url(#paint0_linear_149_331)"/>
<defs>
<linearGradient id="paint0_linear_149_331" x1="0.757812" y1="0.599304" x2="34.1305" y2="73.5686" gradientUnits="userSpaceOnUse">
<stop stop-color="#8E2DE2"/>
<stop offset="1" stop-color="#4A00E0"/>
</linearGradient>
</defs>
</svg>
