<svg width="66" height="66" viewBox="0 0 66 66" fill="none" xmlns="http://www.w3.org/2000/svg">
<path d="M32.9686 65.2221C50.7664 65.2221 65.4567 50.5318 65.4567 32.7653C65.4567 14.9989 50.7351 0.308594 32.9372 0.308594C15.1707 0.308594 0.511841 14.9989 0.511841 32.7653C0.511841 50.5318 15.2021 65.2221 32.9686 65.2221ZM32.9372 37.8818C26.7849 37.8504 22.0137 32.7026 22.0137 25.891C21.9509 19.4876 26.8162 14.1514 32.9372 14.1514C39.0582 14.1514 43.8608 19.4876 43.8608 25.891C43.8608 32.7026 39.0895 37.9446 32.9372 37.8818ZM32.9372 59.8545C25.906 59.8545 18.4352 56.9353 13.6954 51.8502C17.3052 46.4512 24.462 43.3122 32.9372 43.3122C41.3182 43.3122 48.5378 46.3884 52.179 51.8502C47.4392 56.9353 39.9685 59.8545 32.9372 59.8545Z" fill="url(#paint0_linear_149_321)"/>
<defs>
<linearGradient id="paint0_linear_149_321" x1="0.511841" y1="0.308594" x2="65.4253" y2="65.2535" gradientUnits="userSpaceOnUse">
<stop stop-color="#8E2DE2"/>
<stop offset="1" stop-color="#4A00E0"/>
</linearGradient>
</defs>
</svg>
