<svg width="30" height="25" viewBox="0 0 30 25" fill="none" xmlns="http://www.w3.org/2000/svg">
<path d="M6.86381 22.8002C7.28569 22.8002 7.59707 22.6094 8.0993 22.1473L10.9419 19.5257C10.3794 19.0636 9.89729 18.3103 9.89729 16.7333V9.71207C9.89729 6.548 11.8359 4.64957 14.9899 4.64957H22.202L22.1919 4.33818C22.0111 2.32925 20.6752 0.993317 18.3047 0.993317H4.35265C1.95198 0.993317 0.435242 2.38952 0.435242 4.84041V14.8851C0.435242 17.3058 1.93189 18.8025 4.28234 18.8025H5.89953V21.7154C5.89953 22.3784 6.26113 22.8002 6.86381 22.8002ZM23.7087 24.2366C24.3114 24.2366 24.6629 23.8147 24.6629 23.1518V20.2389H25.7076C28.0681 20.2389 29.5647 18.7422 29.5647 16.3214V9.96318C29.5647 7.51229 28.048 6.11608 25.6473 6.11608H15.2812C12.7902 6.11608 11.3638 7.51229 11.3638 9.99332V16.3214C11.3638 18.7623 12.8002 20.2389 15.2812 20.2389H18.7768L22.4732 23.5837C22.9754 24.0357 23.2868 24.2366 23.7087 24.2366ZM20.5044 14.5034C19.9922 14.5034 19.7109 14.2121 19.6908 13.6998L19.5602 10.0837C19.5402 9.55135 19.9419 9.1797 20.4944 9.1797C21.0468 9.1797 21.4486 9.5614 21.4285 10.0837L21.298 13.6998C21.2779 14.2221 20.9966 14.5034 20.5044 14.5034ZM20.4944 17.7478C19.9218 17.7478 19.4397 17.346 19.4397 16.7634C19.4397 16.1909 19.9118 15.779 20.4944 15.779C21.0669 15.779 21.539 16.1808 21.539 16.7634C21.539 17.356 21.0669 17.7478 20.4944 17.7478Z" fill="#E0C3FC"/>
</svg>
