<svg width="24" height="20" viewBox="0 0 24 20" fill="none" xmlns="http://www.w3.org/2000/svg">
<path d="M6.94755 17.6808C8.70537 17.6808 9.92077 18.3136 10.4632 18.6853C10.654 18.7857 11.1563 19.0971 11.2868 19.1272V2.43305C10.5335 1.12725 8.47434 0.102692 6.37501 0.102692C3.59264 0.102692 1.32255 1.66966 0.729919 2.85492V18.0324C0.739964 18.9264 1.2422 19.288 1.86496 19.288C2.32702 19.288 2.61831 19.1272 2.9297 18.8862C3.57255 18.3639 5.04912 17.6808 6.94755 17.6808ZM17.0525 17.6808C18.9509 17.6808 20.4174 18.3639 21.0603 18.8862C21.3717 19.1272 21.663 19.288 22.115 19.288C22.7377 19.288 23.2601 18.9264 23.2601 18.0324V2.85492C22.6674 1.66966 20.3973 0.102692 17.625 0.102692C15.5257 0.102692 13.4565 1.12725 12.7132 2.43305V19.1473C12.8337 19.1172 13.3359 18.7958 13.5368 18.6853C14.0792 18.3136 15.2947 17.6808 17.0525 17.6808Z" fill="#E0C3FC"/>
</svg>
