<svg width="30" height="22" viewBox="0 0 30 22" fill="none" xmlns="http://www.w3.org/2000/svg">
<path d="M20 11C18.715 11 17.4725 10.4263 16.5 9.385C15.5544 8.36938 14.9769 7.015 14.875 5.5725C14.7662 4.03375 15.2356 2.61875 16.1962 1.5875C17.1569 0.55625 18.5 0 20 0C21.4894 0 22.8362 0.56625 23.7937 1.595C24.7606 2.63375 25.2312 4.04625 25.1225 5.57187C25.0181 7.01625 24.4412 8.37 23.4975 9.38437C22.5275 10.4262 21.2856 11 20 11ZM28.2394 22H11.7612C11.4963 22.0014 11.2346 21.942 10.9962 21.8264C10.7578 21.7108 10.5492 21.542 10.3862 21.3331C10.2134 21.1066 10.0941 20.844 10.0372 20.5649C9.98023 20.2857 9.98718 19.9973 10.0575 19.7213C10.5837 17.6081 11.8875 15.8556 13.8275 14.6537C15.5494 13.5875 17.7412 13 20 13C22.3031 13 24.4375 13.5625 26.1694 14.6281C28.1137 15.8237 29.4194 17.5863 29.9431 19.725C30.0126 20.0013 30.0188 20.2897 29.9612 20.5687C29.9036 20.8477 29.7838 21.11 29.6106 21.3363C29.4479 21.5442 29.2397 21.7121 29.002 21.8272C28.7643 21.9422 28.5034 22.0014 28.2394 22ZM8.18749 11.25C5.98812 11.25 4.05437 9.205 3.87499 6.69188C3.78624 5.40438 4.18749 4.21375 4.99999 3.34062C5.80374 2.47625 6.93749 2 8.18749 2C9.43749 2 10.5625 2.47875 11.3706 3.34813C12.1894 4.22813 12.5894 5.41625 12.4956 6.69312C12.3162 9.20562 10.3831 11.25 8.18749 11.25ZM12.2912 13.2156C11.1919 12.6781 9.76499 12.4094 8.18812 12.4094C6.34687 12.4094 4.55874 12.8894 3.15249 13.7606C1.55812 14.75 0.485615 16.1906 0.05249 17.93C-0.0108944 18.1802 -0.0168894 18.4415 0.0349533 18.6943C0.086796 18.9471 0.195134 19.1849 0.351865 19.39C0.500582 19.5809 0.691105 19.7352 0.908782 19.8409C1.12646 19.9467 1.36549 20.0011 1.60749 20H8.54499C8.66209 20 8.77546 19.9589 8.86535 19.8838C8.95524 19.8088 9.01594 19.7046 9.03687 19.5894C9.04374 19.55 9.05249 19.5106 9.06249 19.4719C9.59249 17.3431 10.8344 15.5444 12.6694 14.2331C12.7369 14.1845 12.7911 14.1198 12.8273 14.0448C12.8635 13.9699 12.8804 13.8871 12.8764 13.804C12.8725 13.7209 12.8479 13.6401 12.8049 13.5689C12.7619 13.4977 12.7018 13.4383 12.63 13.3962C12.5319 13.3387 12.4194 13.2781 12.2912 13.2156Z" fill="#E0C3FC"/>
</svg>
