<svg width="14" height="14" viewBox="0 0 14 14" fill="none" xmlns="http://www.w3.org/2000/svg">
<path d="M11.7031 6.125H7.875C7.5269 6.125 7.19306 5.98672 6.94692 5.74058C6.70078 5.49444 6.5625 5.1606 6.5625 4.8125V0.984375C6.5625 0.955367 6.55098 0.927547 6.53047 0.907035C6.50995 0.886523 6.48213 0.875 6.45312 0.875H3.9375C3.47337 0.875 3.02825 1.05937 2.70006 1.38756C2.37187 1.71575 2.1875 2.16087 2.1875 2.625V11.375C2.1875 11.8391 2.37187 12.2842 2.70006 12.6124C3.02825 12.9406 3.47337 13.125 3.9375 13.125H10.0625C10.5266 13.125 10.9717 12.9406 11.2999 12.6124C11.6281 12.2842 11.8125 11.8391 11.8125 11.375V6.23438C11.8125 6.20537 11.801 6.17755 11.7805 6.15703C11.76 6.13652 11.7321 6.125 11.7031 6.125Z" fill="black"/>
<path d="M11.463 5.15676L7.53074 1.22445C7.52309 1.21685 7.51337 1.21168 7.50279 1.20959C7.49222 1.2075 7.48125 1.20858 7.47129 1.2127C7.46133 1.21682 7.4528 1.22379 7.44679 1.23274C7.44078 1.2417 7.43755 1.25222 7.4375 1.26301V4.8125C7.4375 4.92853 7.48359 5.03981 7.56564 5.12186C7.64769 5.20391 7.75897 5.25 7.875 5.25H11.4245C11.4353 5.24995 11.4458 5.24672 11.4547 5.24071C11.4637 5.2347 11.4707 5.22617 11.4748 5.21621C11.4789 5.20624 11.48 5.19528 11.4779 5.18471C11.4758 5.17413 11.4706 5.1644 11.463 5.15676Z" fill="black"/>
</svg>
