<svg xmlns="http://www.w3.org/2000/svg" xmlns:xlink="http://www.w3.org/1999/xlink" viewBox="0 0 513.77 80.47"><defs><style>.cls-1{fill:none;}.cls-2{fill:#e20322;}.cls-3{clip-path:url(#clip-path);}.cls-4{fill:#fbb110;}.cls-5{fill:#fff;}</style><clipPath id="clip-path" transform="translate(56.38 23.23)"><rect class="cls-1" width="398" height="34" rx="17"/></clipPath></defs><title>Boton oxxo</title><g id="Capa_2" data-name="Capa 2"><g id="Capa_1-2" data-name="Capa 1"><rect class="cls-2" x="56.38" y="23.23" width="398" height="34" rx="17"/><g class="cls-3"><rect class="cls-4" width="513.77" height="28.47"/><rect class="cls-4" y="52" width="513.77" height="28.47"/><path class="cls-5" d="M.27,28.57H175.41a9.47,9.47,0,0,0,7.15-3c2.65-2.83,5.13-5.82,7.72-8.8l-5.1-5.84a8.15,8.15,0,0,1-.75-.92,1.82,1.82,0,0,1,.28-2.47,1.64,1.64,0,0,1,2.43.27c1.44,1.59,2.84,3.22,4.25,4.83l1.11,1.26,4.11-5c.28-.34.54-.69.84-1a1.66,1.66,0,0,1,2.42-.35,1.79,1.79,0,0,1,.3,2.55c-.64.9-1.38,1.74-2.09,2.6l-3.2,3.91,3.67,4.2-2.3,2.72-3.64-4.09L185,28.57H401.73v1.66H.27Z" transform="translate(56.38 23.23)"/><path class="cls-5" d="M401.73,5.46c-4.12,0-175.25-.06-179.38,0a9.36,9.36,0,0,0-6.81,3.24c-2.58,2.74-5,5.61-7.61,8.51l4.28,5.15c.43.52.89,1,1.28,1.57a1.82,1.82,0,0,1-.29,2.64,1.65,1.65,0,0,1-2.41-.41c-1.53-1.78-3-3.59-4.52-5.38-.2-.24-.43-.45-.7-.74-1.67,1.95-3.29,3.85-4.94,5.72-.89,1-1.89,1.08-2.68.28s-.7-1.74.17-2.77c1.69-2,3.41-4,5.17-6l-3.57-4.29L202,10.11l3.64,4.36,7.73-9a3,3,0,0,0-.45-.06H163.74L.27,5.46V3.79l164.66,0q29.67,0,59.34,0l177.46,0Z" transform="translate(56.38 23.23)"/><path class="cls-5" d="M184.27,16.59a9.34,9.34,0,1,1-9.38-9.4A9.36,9.36,0,0,1,184.27,16.59ZM175,10.65a5.9,5.9,0,0,0-6,5.82,5.94,5.94,0,1,0,6-5.82Z" transform="translate(56.38 23.23)"/><path class="cls-5" d="M233.11,16.6a9.34,9.34,0,1,1-9.37-9.41A9.36,9.36,0,0,1,233.11,16.6Zm-9.35-6a5.93,5.93,0,0,0-5.92,5.89,5.93,5.93,0,1,0,11.86-.05A5.88,5.88,0,0,0,223.76,10.65Z" transform="translate(56.38 23.23)"/></g></g></g></svg>