<svg xmlns="http://www.w3.org/2000/svg" viewBox="0 0 398 34"><defs><style>.cls-1{fill:#e20322;}.cls-2{fill:#fff;}.cls-3{fill:none;}.cls-4{fill:#fbb110;}</style></defs><title>Botón pago con oxxo</title><g id="Capa_2" data-name="Capa 2"><g id="Capa_1-2" data-name="Capa 1"><rect class="cls-1" width="398" height="34" rx="17"/><path class="cls-2" d="M184.27,16.59a9.34,9.34,0,1,1-9.38-9.4A9.36,9.36,0,0,1,184.27,16.59ZM175,10.65a5.9,5.9,0,0,0-6,5.82,5.94,5.94,0,1,0,6-5.82Z"/><path class="cls-2" d="M233.11,16.6a9.34,9.34,0,1,1-9.37-9.41A9.36,9.36,0,0,1,233.11,16.6Zm-9.35-6a5.93,5.93,0,0,0-5.92,5.89,5.93,5.93,0,1,0,11.86-.05A5.88,5.88,0,0,0,223.76,10.65Z"/><rect class="cls-3" width="398" height="34" rx="17"/><path class="cls-4" d="M4.74,5.24H393.26A17,17,0,0,0,381,0H17A17,17,0,0,0,4.74,5.24Z"/><path class="cls-4" d="M4.74,28.76A17,17,0,0,0,17,34H381a17,17,0,0,0,12.26-5.24Z"/><path class="cls-2" d="M164.93,3.77,6.31,3.79A17.27,17.27,0,0,0,4.55,5.45l159.19,0h49.18a3,3,0,0,1,.45.06l-7.73,9L202,10.11l-2.28,2.83c1.23,1.48,2.4,2.87,3.57,4.29-1.76,2.05-3.48,4-5.17,6-.87,1-.91,2-.17,2.77s1.79.73,2.68-.28c1.65-1.87,3.27-3.77,4.94-5.72.27.29.5.5.7.74,1.5,1.79,3,3.6,4.52,5.38a1.65,1.65,0,0,0,2.41.41,1.82,1.82,0,0,0,.29-2.64c-.39-.55-.85-1.05-1.28-1.57l-4.28-5.15c2.58-2.9,5-5.77,7.61-8.51a9.36,9.36,0,0,1,6.81-3.24c3.63,0,136.19,0,171.1,0a17.27,17.27,0,0,0-1.76-1.66l-167.42,0Q194.6,3.76,164.93,3.77Z"/><path class="cls-2" d="M185,28.57l7.59-9.13,3.64,4.09,2.3-2.72-3.67-4.2,3.2-3.91c.71-.86,1.45-1.7,2.09-2.6a1.79,1.79,0,0,0-.3-2.55,1.66,1.66,0,0,0-2.42.35c-.3.32-.56.67-.84,1l-4.11,5-1.11-1.26C190,11,188.58,9.4,187.14,7.81a1.64,1.64,0,0,0-2.43-.27,1.82,1.82,0,0,0-.28,2.47,8.15,8.15,0,0,0,.75.92l5.1,5.84c-2.59,3-5.07,6-7.72,8.8a9.47,9.47,0,0,1-7.15,3H4.57a17.38,17.38,0,0,0,1.77,1.66H391.66a17.38,17.38,0,0,0,1.77-1.66Z"/></g></g></svg>