<svg xmlns="http://www.w3.org/2000/svg" viewBox="0 0 398 34"><defs><style>.cls-1{fill:#00005b;}.cls-2{fill:#fff;}</style></defs><title>boton transferencia</title><g id="Capa_2" data-name="Capa 2"><g id="Capa_1-2" data-name="Capa 1"><rect class="cls-1" width="398" height="34" rx="17"/><path class="cls-2" d="M136.5,12.3h-4.45V10.19h11.39V12.3H139V23.61H136.5Z"/><path class="cls-2" d="M150.77,13.25v2.29a3,3,0,0,0-.56-.06,2.89,2.89,0,0,0-2.18.81,3.24,3.24,0,0,0-.79,2.35v5h-2.4V13.37h2.28v1.5A4,4,0,0,1,150.77,13.25Z"/><path class="cls-2" d="M160.12,14.34a4.18,4.18,0,0,1,1.2,3.27v6h-2.27V22.36a2.78,2.78,0,0,1-1.25,1,4.89,4.89,0,0,1-2,.35,4.81,4.81,0,0,1-2-.39,3.1,3.1,0,0,1-1.34-1.09,2.82,2.82,0,0,1-.47-1.58,2.74,2.74,0,0,1,1-2.22,5.12,5.12,0,0,1,3.23-.83h2.65v-.16a2.15,2.15,0,0,0-.64-1.65,2.81,2.81,0,0,0-1.91-.57,5.49,5.49,0,0,0-1.7.27,4.21,4.21,0,0,0-1.41.75l-.94-1.75a5.84,5.84,0,0,1,1.94-.94,8.49,8.49,0,0,1,2.4-.33A5,5,0,0,1,160.12,14.34Zm-2.19,7.25a2.25,2.25,0,0,0,1-1.18V19.22h-2.48c-1.38,0-2.07.45-2.07,1.36a1.26,1.26,0,0,0,.52,1,2.44,2.44,0,0,0,1.44.38A3.15,3.15,0,0,0,157.93,21.59Z"/><path class="cls-2" d="M173.3,14.39a4.45,4.45,0,0,1,1.17,3.35v5.87h-2.4V18.05a2.86,2.86,0,0,0-.63-2,2.31,2.31,0,0,0-1.8-.69,2.77,2.77,0,0,0-2.09.8,3.19,3.19,0,0,0-.77,2.29v5.18h-2.4V13.37h2.29v1.32a3.68,3.68,0,0,1,1.49-1.07,5.44,5.44,0,0,1,2-.37A4.25,4.25,0,0,1,173.3,14.39Z"/><path class="cls-2" d="M178.25,23.42a6,6,0,0,1-1.9-.83l.92-1.82a5.64,5.64,0,0,0,1.66.74,6.74,6.74,0,0,0,1.91.28c1.43,0,2.15-.38,2.15-1.13a.76.76,0,0,0-.55-.75,8.87,8.87,0,0,0-1.75-.4,15.4,15.4,0,0,1-2.07-.44,3.17,3.17,0,0,1-1.38-.88,2.41,2.41,0,0,1-.58-1.73,2.71,2.71,0,0,1,1.22-2.33,5.45,5.45,0,0,1,3.28-.88,9.42,9.42,0,0,1,2.11.24,5.85,5.85,0,0,1,1.73.65L184.08,16a5.7,5.7,0,0,0-2.93-.77,3.29,3.29,0,0,0-1.61.32.94.94,0,0,0-.54.83.83.83,0,0,0,.58.82,9.38,9.38,0,0,0,1.81.45,14,14,0,0,1,2,.44,3.18,3.18,0,0,1,1.35.84,2.35,2.35,0,0,1,.57,1.69,2.67,2.67,0,0,1-1.25,2.3,5.83,5.83,0,0,1-3.39.86A9,9,0,0,1,178.25,23.42Z"/><path class="cls-2" d="M190,12.83v.62h2.82v1.91h-2.74v8.25h-2.4V15.36H186V13.45h1.68v-.66a3.46,3.46,0,0,1,1-2.59,4.41,4.41,0,0,1,4.87-.4l-.67,1.81a2.24,2.24,0,0,0-1.32-.43C190.55,11.18,190,11.73,190,12.83Z"/><path class="cls-2" d="M203.91,19.26h-8A2.77,2.77,0,0,0,197,21.05a3.6,3.6,0,0,0,2.21.66A3.73,3.73,0,0,0,202,20.6l1.29,1.48a4.27,4.27,0,0,1-1.75,1.24,6.93,6.93,0,0,1-5.35-.25,4.71,4.71,0,0,1-2-1.87,5.24,5.24,0,0,1-.7-2.71,5.31,5.31,0,0,1,.68-2.7,4.76,4.76,0,0,1,1.89-1.86,5.46,5.46,0,0,1,2.72-.68,5.31,5.31,0,0,1,2.68.67,4.77,4.77,0,0,1,1.84,1.86,5.65,5.65,0,0,1,.66,2.77C204,18.71,203.93,19,203.91,19.26Zm-7.09-3.41a2.91,2.91,0,0,0-1,1.81h5.82a2.8,2.8,0,0,0-2.9-2.49A2.91,2.91,0,0,0,196.82,15.85Z"/><path class="cls-2" d="M212.17,13.25v2.29a2.8,2.8,0,0,0-.55-.06,2.93,2.93,0,0,0-2.19.81,3.28,3.28,0,0,0-.78,2.35v5h-2.4V13.37h2.28v1.5A4,4,0,0,1,212.17,13.25Z"/><path class="cls-2" d="M223.7,19.26h-8a2.76,2.76,0,0,0,1.1,1.79,3.6,3.6,0,0,0,2.21.66,3.71,3.71,0,0,0,2.78-1.11l1.29,1.48a4.27,4.27,0,0,1-1.75,1.24,6.93,6.93,0,0,1-5.35-.25,4.77,4.77,0,0,1-2-1.87,5.24,5.24,0,0,1-.7-2.71,5.41,5.41,0,0,1,.68-2.7,4.76,4.76,0,0,1,1.89-1.86,5.46,5.46,0,0,1,2.72-.68,5.31,5.31,0,0,1,2.68.67,4.7,4.7,0,0,1,1.84,1.86,5.65,5.65,0,0,1,.66,2.77C223.74,18.71,223.73,19,223.7,19.26Zm-7.09-3.41a2.85,2.85,0,0,0-1,1.81h5.81a2.8,2.8,0,0,0-2.9-2.49A2.91,2.91,0,0,0,216.61,15.85Z"/><path class="cls-2" d="M235,14.39a4.45,4.45,0,0,1,1.17,3.35v5.87h-2.4V18.05a2.86,2.86,0,0,0-.63-2,2.31,2.31,0,0,0-1.8-.69,2.76,2.76,0,0,0-2.09.8,3.14,3.14,0,0,0-.77,2.29v5.18H226V13.37h2.28v1.32a3.79,3.79,0,0,1,1.5-1.07,5.44,5.44,0,0,1,2-.37A4.27,4.27,0,0,1,235,14.39Z"/><path class="cls-2" d="M241.11,23.07a4.86,4.86,0,0,1-2-1.87,5.24,5.24,0,0,1-.71-2.71,5.18,5.18,0,0,1,.71-2.7,4.88,4.88,0,0,1,2-1.86,6,6,0,0,1,2.87-.68,5.53,5.53,0,0,1,2.66.62,4,4,0,0,1,1.71,1.76l-1.84,1.08a2.89,2.89,0,0,0-1.1-1.07,3.08,3.08,0,0,0-1.45-.35,3,3,0,0,0-2.22.87,3.12,3.12,0,0,0-.88,2.33,3.15,3.15,0,0,0,.87,2.33,3,3,0,0,0,2.23.87,3.08,3.08,0,0,0,1.45-.35,2.89,2.89,0,0,0,1.1-1.07l1.84,1.08a4.11,4.11,0,0,1-1.73,1.77,5.37,5.37,0,0,1-2.64.62A6,6,0,0,1,241.11,23.07Z"/><path class="cls-2" d="M250.53,11.27a1.38,1.38,0,0,1-.44-1,1.34,1.34,0,0,1,.44-1,1.52,1.52,0,0,1,1.09-.42,1.62,1.62,0,0,1,1.1.4,1.28,1.28,0,0,1,.44,1,1.47,1.47,0,0,1-.43,1.06,1.5,1.5,0,0,1-1.11.43A1.55,1.55,0,0,1,250.53,11.27Zm-.11,2.1h2.39V23.61h-2.39Z"/><path class="cls-2" d="M263.33,14.34a4.18,4.18,0,0,1,1.2,3.27v6h-2.26V22.36a2.86,2.86,0,0,1-1.26,1,5.54,5.54,0,0,1-4,0,3.07,3.07,0,0,1-1.33-1.09,2.91,2.91,0,0,1,.55-3.8,5.18,5.18,0,0,1,3.24-.83h2.64v-.16a2.11,2.11,0,0,0-.64-1.65,2.79,2.79,0,0,0-1.91-.57,5.54,5.54,0,0,0-1.7.27,4.31,4.31,0,0,0-1.41.75l-.93-1.75a5.79,5.79,0,0,1,1.93-.94,8.59,8.59,0,0,1,2.4-.33A5,5,0,0,1,263.33,14.34Zm-2.19,7.25a2.25,2.25,0,0,0,1-1.18V19.22h-2.47c-1.38,0-2.07.45-2.07,1.36a1.23,1.23,0,0,0,.52,1,2.38,2.38,0,0,0,1.43.38A3.12,3.12,0,0,0,261.14,21.59Z"/><path class="cls-2" d="M359,0h-5V5.81h0a10,10,0,0,1-9.87,9.09q-15.86,0-31.73,0c-.23,0-.45,0-.68-.05l-.09-.17L317,9.39,313.65,6,302.11,17.5,313.69,29c.93-.95,1.87-2,2.87-2.91.45-.43.38-.69,0-1.09-1.49-1.45-2.94-2.93-4.41-4.4a6.73,6.73,0,0,1-.54-.69c.49,0,.8-.05,1.12-.05q15.45,0,30.89,0a17.86,17.86,0,0,0,3.86-.38,14.49,14.49,0,0,0,8.21-5.12A15,15,0,0,0,359,5.89V5.82h0Z"/><path class="cls-2" d="M45,34h5V28.19h0a10,10,0,0,1,9.87-9.09q15.87,0,31.74,0c.22,0,.45,0,.67.05l.09.17L87,24.61,90.34,28,101.87,16.5,90.29,5c-.92,1-1.87,2-2.86,2.91-.45.43-.39.69,0,1.09,1.49,1.45,3,2.93,4.41,4.4a8.23,8.23,0,0,1,.55.69c-.49,0-.81.05-1.12.05q-15.45,0-30.89,0a17.8,17.8,0,0,0-3.86.38,14.49,14.49,0,0,0-8.21,5.12A15,15,0,0,0,45,28.11v.07h0Z"/></g></g></svg>