<svg width="24" height="18" viewBox="0 0 24 18" fill="none" xmlns="http://www.w3.org/2000/svg">
<path d="M23.25 4.12501C23.25 3.42881 22.9734 2.76114 22.4812 2.26885C21.9889 1.77657 21.3212 1.50001 20.625 1.50001H10.3177C10.0957 1.50072 9.87854 1.43546 9.69375 1.31251L8.39062 0.441099C7.95911 0.152543 7.45145 -0.00101089 6.93234 5.00835e-06H3.375C2.67881 5.00835e-06 2.01113 0.276567 1.51884 0.768851C1.02656 1.26113 0.75 1.92881 0.75 2.62501V4.87501C0.75 4.97447 0.789509 5.06985 0.859835 5.14017C0.930161 5.2105 1.02554 5.25001 1.125 5.25001H22.875C22.9745 5.25001 23.0698 5.2105 23.1402 5.14017C23.2105 5.06985 23.25 4.97447 23.25 4.87501V4.12501ZM0.75 15.375C0.75 16.0712 1.02656 16.7389 1.51884 17.2312C2.01113 17.7235 2.67881 18 3.375 18H20.625C21.3212 18 21.9889 17.7235 22.4812 17.2312C22.9734 16.7389 23.25 16.0712 23.25 15.375V7.12501C23.25 7.02556 23.2105 6.93017 23.1402 6.85985C23.0698 6.78952 22.9745 6.75001 22.875 6.75001H1.125C1.02554 6.75001 0.930161 6.78952 0.859835 6.85985C0.789509 6.93017 0.75 7.02556 0.75 7.12501V15.375Z" fill="black"/>
</svg>
